<svg xmlns="http://www.w3.org/2000/svg" width="18" height="18" viewBox="0 0 18 18"><defs><style>.a{fill:#fd5a5d;opacity:0;}.b{fill:#1c56ff;}</style></defs><g transform="translate(-1315 -370)"><rect class="a" width="18" height="18" transform="translate(1315 370)"/><g transform="translate(1313.809 368.75)"><g transform="translate(1.25 1.25)"><path class="b" d="M10.6,18.509a.631.631,0,0,0,0-1.263v1.263ZM17.246,10.6a.631.631,0,0,0,1.263,0ZM10.6,17.246H7.48v1.263H10.6V17.246Zm-3.115,0c-1.937,0-3.129-.391-3.853-1.115s-1.115-1.915-1.115-3.852H1.25c0,2.062.408,3.669,1.485,4.746s2.684,1.485,4.745,1.485V17.246ZM2.513,12.279V7.48H1.25v4.8Zm0-4.8c0-1.937.391-3.129,1.115-3.853S5.543,2.513,7.48,2.513V1.25c-2.062,0-3.669.409-4.745,1.485S1.25,5.418,1.25,7.48ZM7.48,2.513h4.8V1.25H7.48V2.513Zm4.8,0c1.937,0,3.129.391,3.852,1.115s1.115,1.915,1.115,3.853h1.263c0-2.062-.408-3.669-1.485-4.745S14.341,1.25,12.279,1.25V2.513ZM17.246,7.48V10.6h1.263V7.48Z" transform="translate(-1.25 -1.25)"/><g transform="translate(10.726 10.844)"><path class="b" d="M19.378,17.456a2.063,2.063,0,0,1-2.063,2.063v1.263a3.326,3.326,0,0,0,3.326-3.326Zm-2.063,2.063a2.063,2.063,0,0,1-2.063-2.063H13.99a3.326,3.326,0,0,0,3.326,3.326V19.518Zm-2.063-2.063a2.063,2.063,0,0,1,2.063-2.063V14.13a3.326,3.326,0,0,0-3.326,3.326Zm2.063-2.063a2.063,2.063,0,0,1,2.063,2.063h1.263a3.326,3.326,0,0,0-3.326-3.326v1.263Z" transform="translate(-13.99 -14.13)"/><g transform="translate(5.051 5.051)"><path class="b" d="M21.017,22.05a.631.631,0,0,0,.893-.893l-.893.893Zm.051-1.735a.631.631,0,0,0-.893.893l.893-.893Zm.842.842-.842-.842-.893.893.842.842.893-.893Z" transform="translate(-19.99 -20.13)"/></g></g></g><g transform="translate(5.879 7.037)"><path class="b" d="M6.881,12.25a.631.631,0,0,0,0,1.263V12.25Zm5.051,1.263a.631.631,0,1,0,0-1.263v1.263Zm-5.051,0h5.051V12.25H6.881v1.263Z" transform="translate(-6.25 -12.25)"/></g><g transform="translate(5.879 10.405)"><path class="b" d="M6.881,16.25a.631.631,0,1,0,0,1.263V16.25Zm3.368,1.263a.631.631,0,1,0,0-1.263v1.263Zm-3.368,0h3.368V16.25H6.881v1.263Z" transform="translate(-6.25 -16.25)"/></g></g></g></svg>