<svg xmlns="http://www.w3.org/2000/svg" width="12" height="12" viewBox="0 0 12 12"><defs><style>.a{fill:#3c4b67;}</style></defs><g transform="translate(-1.25 -1.25)"><g transform="translate(1.25 1.25)"><path class="a" d="M1.669,5.994a.422.422,0,0,1-.419-.419V4.18A2.937,2.937,0,0,1,4.18,1.25h1.4a.419.419,0,0,1,0,.837H4.18A2.094,2.094,0,0,0,2.087,4.18v1.4a.422.422,0,0,1-.419.419Z" transform="translate(-1.25 -1.25)"/><g transform="translate(7.256)"><path class="a" d="M18.576,5.994a.422.422,0,0,1-.419-.419V4.18a2.094,2.094,0,0,0-2.093-2.093h-1.4a.419.419,0,1,1,0-.837h1.4a2.937,2.937,0,0,1,2.93,2.93v1.4a.422.422,0,0,1-.419.419Z" transform="translate(-14.25 -1.25)"/></g><g transform="translate(7.814 7.814)"><path class="a" d="M16.506,19.436h-.837a.419.419,0,1,1,0-.837h.837A2.094,2.094,0,0,0,18.6,16.506v-.837a.419.419,0,1,1,.837,0v.837a2.937,2.937,0,0,1-2.93,2.93Z" transform="translate(-15.25 -15.25)"/></g><g transform="translate(0 7.256)"><path class="a" d="M5.576,18.994H4.18a2.937,2.937,0,0,1-2.93-2.93v-1.4a.419.419,0,1,1,.837,0v1.4A2.094,2.094,0,0,0,4.18,18.157h1.4a.419.419,0,1,1,0,.837Z" transform="translate(-1.25 -14.25)"/></g></g></g></svg>