<svg xmlns="http://www.w3.org/2000/svg" xmlns:xlink="http://www.w3.org/1999/xlink" width="14" height="14" viewBox="0 0 14 14"><defs><style>.a{fill:none;}.b{clip-path:url(#a);}.c,.d{fill:#506894;}.d{fill-rule:evenodd;}</style><clipPath id="a"><rect class="a" width="14" height="14"/></clipPath></defs><g class="b"><g transform="translate(1.75 12.25)"><path class="c" d="M3.583,21h9.333a.583.583,0,0,1,.583.583h0a.583.583,0,0,1-.583.583H3.583A.583.583,0,0,1,3,21.583H3A.583.583,0,0,1,3.583,21Z" transform="translate(-3 -21)"/></g><g transform="translate(1.75 0.483)"><path class="d" d="M12.263,4.258l-.513.513L9.658,2.678l.513-.513a.583.583,0,0,1,.825,0l1.267,1.267A.583.583,0,0,1,12.263,4.258ZM10.925,5.6,8.833,3.5l-3.55,3.55L7.375,9.145ZM6.258,10.262H4.167V8.17l.292-.292L6.55,9.97ZM3,8.17v2.092a1.167,1.167,0,0,0,1.167,1.167H6.258a1.167,1.167,0,0,0,.825-.342l6-6a1.75,1.75,0,0,0,0-2.475L11.821,1.341a1.75,1.75,0,0,0-2.475,0l-6,6A1.167,1.167,0,0,0,3,8.17Z" transform="translate(-3 -0.828)"/></g></g></svg>