<svg xmlns="http://www.w3.org/2000/svg" width="11.998" height="11.999" viewBox="0 0 11.998 11.999"><defs><style>.a{fill:#506894;fill-rule:evenodd;}</style></defs><path class="a" d="M0,6a6,6,0,1,1,6,6A6,6,0,0,1,0,6ZM6,1.2A4.8,4.8,0,1,0,10.8,6,4.8,4.8,0,0,0,6,1.2ZM5.024,4.874a.975.975,0,1,1,1.337.905A1.429,1.429,0,0,0,5.4,7.049V7.2a.6.6,0,1,0,1.2,0c0-.014,0-.029,0-.044a.185.185,0,0,1,.028-.142.5.5,0,0,1,.183-.12A2.175,2.175,0,1,0,3.825,4.874a.6.6,0,1,0,1.2,0ZM6,9.6A.6.6,0,1,0,5.4,9,.6.6,0,0,0,6,9.6Z"/></svg>