<svg xmlns="http://www.w3.org/2000/svg" width="15.208" height="16" viewBox="0 0 15.208 16"><defs><style>.a{fill:#fff;}</style></defs><g transform="translate(-1798.422 -207.001)"><path class="a" d="M13.9,15.979a1,1,0,0,1-.206-.061,1.067,1.067,0,0,1-.189-.1,1.165,1.165,0,0,1-.167-.138l-3.056-3.056A6.8,6.8,0,1,1,11.96,11.2l2.925,2.927a.9.9,0,0,1,.138.166,1.106,1.106,0,0,1,.164.393,1.075,1.075,0,0,1,.021.215,1.035,1.035,0,0,1-.021.213,1.074,1.074,0,0,1-.062.206,1.05,1.05,0,0,1-.1.19,1,1,0,0,1-.138.166,1.391,1.391,0,0,1-.163.138,1.278,1.278,0,0,1-.19.1A1.142,1.142,0,0,1,14.11,16,1.078,1.078,0,0,1,13.9,15.979ZM1.883,6.794A4.911,4.911,0,1,0,6.794,1.881,4.917,4.917,0,0,0,1.883,6.794Z" transform="translate(1798.422 207.001)"/></g></svg>