<svg xmlns="http://www.w3.org/2000/svg" width="11.998" height="11.999" viewBox="0 0 11.998 11.999"><defs><style>.a{fill:#3c4b67;}</style></defs><g transform="translate(0 0)"><g transform="translate(0 0)"><g transform="translate(6.462)"><g transform="translate(0 0.923)"><path class="a" d="M14.711,2.25a.465.465,0,0,1,.461.461v3.23H18.4a.461.461,0,0,1,0,.923H14.711A.465.465,0,0,1,14.25,6.4V2.711a.465.465,0,0,1,.461-.461Z" transform="translate(-14.25 -2.25)"/></g><g transform="translate(0.002)"><path class="a" d="M17.827,2.252a.456.456,0,0,1,.326.135.464.464,0,0,1,0,.652L13.539,7.655A.461.461,0,1,1,12.886,7L17.5,2.388a.456.456,0,0,1,.326-.135Z" transform="translate(-12.753 -2.252)"/></g></g><g transform="translate(0 6.462)"><g transform="translate(0.921 0)"><path class="a" d="M2.711,14.25H6.4a.465.465,0,0,1,.461.461V18.4a.461.461,0,0,1-.923,0v-3.23H2.711a.461.461,0,1,1,0-.923Z" transform="translate(-2.25 -14.25)"/></g><path class="a" d="M7.327,12.753a.456.456,0,0,1,.326.135.464.464,0,0,1,0,.652L3.039,18.155a.461.461,0,1,1-.652-.652L7,12.888a.456.456,0,0,1,.326-.135Z" transform="translate(-2.253 -12.753)"/></g></g></g></svg>