<svg xmlns="http://www.w3.org/2000/svg" width="11.999" height="13.231" viewBox="0 0 11.999 13.231"><defs><style>.a{fill:#3c4b67;}</style></defs><g transform="translate(0 0)"><g transform="translate(0 2.132)"><path class="a" d="M13.787,5.955h-.049a48.478,48.478,0,0,0-9.723-.123l-1.255.123a.465.465,0,0,1-.511-.418.459.459,0,0,1,.412-.5l1.255-.123a49.935,49.935,0,0,1,9.914.123.462.462,0,0,1,.412.5.456.456,0,0,1-.455.418Z" transform="translate(-2.246 -4.714)"/></g><g transform="translate(3.386)"><path class="a" d="M8.211,4a.379.379,0,0,1-.08-.006.463.463,0,0,1-.375-.529l.135-.806c.1-.591.234-1.409,1.668-1.409h1.612c1.44,0,1.575.849,1.668,1.415l.135.8a.459.459,0,1,1-.9.154l-.135-.8c-.086-.535-.1-.64-.757-.64H9.565c-.652,0-.665.086-.757.634l-.142.8A.462.462,0,0,1,8.211,4Z" transform="translate(-7.749 -1.25)"/></g><g transform="translate(1.324 4.393)"><path class="a" d="M11.052,17.227H7.1c-2.148,0-2.234-1.188-2.3-2.148l-.4-6.2a.463.463,0,0,1,.923-.062l.4,6.2c.068.935.092,1.286,1.378,1.286h3.951c1.292,0,1.317-.351,1.379-1.286l.4-6.2a.47.47,0,0,1,.492-.431.462.462,0,0,1,.431.492l-.4,6.2c-.068.96-.154,2.148-2.3,2.148Z" transform="translate(-4.398 -8.389)"/></g><g transform="translate(4.513 8.923)"><path class="a" d="M12.091,16.673H10.042a.462.462,0,1,1,0-.923h2.049a.462.462,0,1,1,0,.923Z" transform="translate(-9.58 -15.75)"/></g><g transform="translate(4.002 6.462)"><path class="a" d="M12.289,12.673H9.212a.462.462,0,0,1,0-.923h3.077a.462.462,0,1,1,0,.923Z" transform="translate(-8.75 -11.75)"/></g></g></svg>