<?xml version="1.0" standalone="no"?><!DOCTYPE svg PUBLIC "-//W3C//DTD SVG 1.1//EN" "http://www.w3.org/Graphics/SVG/1.1/DTD/svg11.dtd"><svg t="1682599359349" class="icon" viewBox="0 0 1024 1024" version="1.1" xmlns="http://www.w3.org/2000/svg" p-id="30418" xmlns:xlink="http://www.w3.org/1999/xlink" width="400" height="400"><path d="M482.7904 529.6384H256a10.24 10.24 0 0 0-10.24 10.24V768a10.24 10.24 0 0 0 10.24 10.24h226.7904a10.24 10.24 0 0 0 10.24-10.24v-228.1216a10.24 10.24 0 0 0-10.24-10.24z m-9.0624 218.7264a10.24 10.24 0 0 1-10.24 10.24h-187.8528a10.24 10.24 0 0 1-10.24-10.24v-188.5184a10.24 10.24 0 0 1 10.24-10.24h187.8528a10.24 10.24 0 0 1 10.24 10.24v188.5184zM768 529.6384h-226.7904a10.24 10.24 0 0 0-10.24 10.24V768a10.24 10.24 0 0 0 10.24 10.24H768a10.24 10.24 0 0 0 10.24-10.24v-228.1216a10.24 10.24 0 0 0-10.24-10.24z m-9.3952 218.7264a10.24 10.24 0 0 1-10.24 10.24h-187.8528a10.24 10.24 0 0 1-10.24-10.24v-188.5184a10.24 10.24 0 0 1 10.24-10.24h187.8528a10.24 10.24 0 0 1 10.24 10.24v188.5184zM482.7904 245.76H256a10.24 10.24 0 0 0-10.24 10.24v228.1216a10.24 10.24 0 0 0 10.24 10.24h226.7904a10.24 10.24 0 0 0 10.24-10.24V256a10.24 10.24 0 0 0-10.24-10.24z m-9.0624 218.3936a10.24 10.24 0 0 1-10.24 10.24h-187.8528a10.24 10.24 0 0 1-10.24-10.24v-188.5184a10.24 10.24 0 0 1 10.24-10.24h187.8528a10.24 10.24 0 0 1 10.24 10.24v188.5184z" fill="#608DF5" p-id="30419"></path><path d="M768 245.76h-226.7904a10.24 10.24 0 0 0-10.24 10.24v228.1216a10.24 10.24 0 0 0 10.24 10.24H768a10.24 10.24 0 0 0 10.24-10.24V256a10.24 10.24 0 0 0-10.24-10.24z m-9.3952 218.3936a10.24 10.24 0 0 1-10.24 10.24h-187.8528a10.24 10.24 0 0 1-10.24-10.24v-188.5184a10.24 10.24 0 0 1 10.24-10.24h187.8528a10.24 10.24 0 0 1 10.24 10.24v188.5184z" fill="#E9895D" p-id="30420"></path></svg>